<svg xmlns="http://www.w3.org/2000/svg" xmlns:xlink="http://www.w3.org/1999/xlink" width="704" height="451" viewBox="0 0 704 451"><defs><clipPath id="a"><rect width="704" height="451" transform="translate(1084 357)" fill="#fff" stroke="#707070" stroke-width="1"/></clipPath></defs><g transform="translate(-1084 -357)" clip-path="url(#a)"><path d="M.3.4H703.876V451H.3Z" transform="translate(1084.124 357)" fill="#e6e6e6"/><path d="M20.419,56.915H683.757V228.688H20.419Z" transform="translate(1084.124 357)" fill="#fff"/><path d="M185.418,81.727H325.7V89.78H185.418Z" transform="translate(1084.124 357)" fill="#e6e6e6"/><path d="M185.418,111.1H402.043v8.053H185.418Z" transform="translate(1084.124 357)" fill="#4156d0"/><path d="M185.418,138.776H361.962v8.053H185.418Zm0,27.57H288.482V174.4H185.418Zm0,27.57h155.55v8.053H185.418ZM121.481,78.864h17.177V96.041H121.481Z" transform="translate(1084.124 357)" fill="#e6e6e6"/><path d="M121.481,106.539h17.177v17.177H121.481Z" transform="translate(1084.124 357)" fill="#4156d0"/><path d="M121.481,134.213h17.177V151.39H121.481Zm0,27.675h17.177v17.177H121.481Zm0,27.674h17.177v17.177H121.481ZM533.736,117.99h57.258v57.258H533.736Z" transform="translate(1084.124 357)" fill="#e6e6e6"/><path d="M20.419,252.546H683.757V424.319H20.419Z" transform="translate(1084.124 357)" fill="#fff"/><path d="M151.064,267.812h17.177v17.177H151.064Z" transform="translate(1084.124 357)" fill="#e6e6e6"/><path d="M121.481,267.812h17.177v17.177H121.481Z" transform="translate(1084.124 357)" fill="#4156d0"/><path d="M412.724,305.375a65.046,65.046,0,0,0-105-9.7l-4.186-3.657a70.594,70.594,0,0,1,113.973,10.526Z" transform="translate(1084.124 357)" fill="#e6e6e6"/><path d="M415.344,377.794l-4.614-3.1a65.078,65.078,0,0,0,1.994-69.317l4.784-2.831a70.637,70.637,0,0,1-2.164,75.25Zm-111.23,7.745a70.59,70.59,0,0,1-.58-93.521l4.187,3.657a65.03,65.03,0,0,0,.534,86.155Z" transform="translate(1084.124 357)" fill="#4156d0"/><path d="M356.714,409.052a70.709,70.709,0,0,1-52.6-23.513l4.14-3.71a65.043,65.043,0,0,0,102.476-7.137l4.614,3.1A70.554,70.554,0,0,1,356.714,409.052Z" transform="translate(1084.124 357)" fill="#4156d0"/><path d="M533.736,305.032h57.258V362.29H533.736ZM119.1,342.249h57.258v57.258H119.1Z" transform="translate(1084.124 357)" fill="#e6e6e6"/><path d="M0,0H703.576V29.89H0Z" transform="translate(1084.124 357)" fill="#4156d0"/><circle cx="5.54" cy="5.54" r="5.54" transform="translate(1100.796 366.742)" fill="#fff"/><circle cx="5.54" cy="5.54" r="5.54" transform="translate(1121.825 366.742)" fill="#fff"/><circle cx="5.54" cy="5.54" r="5.54" transform="translate(1142.853 366.742)" fill="#fff"/><g transform="translate(1084 339)" fill="#fff" stroke="#707070" stroke-width="1"><rect width="1" height="5" stroke="none"/><rect x="0.5" y="0.5" height="4" fill="none"/></g></g></svg>