<svg xmlns="http://www.w3.org/2000/svg" xmlns:xlink="http://www.w3.org/1999/xlink" width="898" height="501.024" viewBox="0 0 898 501.024"><defs><style>.a{fill:none;}.b{clip-path:url(#a);}.c{fill:#e6e6e6;}.d{fill:#ffb8b8;}.e{fill:#2f2e41;}.f{fill:#d0cde1;}.g{fill:#fff;}.h{fill:#4156d0;}</style><clipPath id="a"><rect class="a" width="152" height="37.203"/></clipPath></defs><g transform="translate(-307.876 -369)"><g class="b" transform="translate(307.876 832.821)"><g transform="translate(-735.876 -614.821)"><path class="c" d="M887.876,633.423c-2.846,25.876-152.226,23.7-152,0C738.722,607.547,888.1,609.719,887.876,633.423Z"/></g></g><path class="d" d="M799.39,567.02l6.055,13.12,11.1-1.009,7.064-23.213-11.1-6.055Zm-38.113,30.217-.239,9.143,17.157,1.01v-11.1Z" transform="translate(-388.897 218)"/><path class="e" d="M774.158,430.772l4.037,80.739-10.093,87.8,30.278,4.037,19.175-111.017,6.056-75.694-49.453,14.13Z" transform="translate(-395.961 218)"/><path class="e" d="M771.007,401.5s-12.11,79.73,13.12,105.97,59.546,72.666,59.546,72.666L867.9,549.863l-61.564-65.6,12.11-44.407L867.9,416.642l-8.074-55.508-72.666-1.01Z" transform="translate(-440.245 218)"/><circle class="d" cx="22.203" cy="22.203" r="22.203" transform="translate(368.105 390.406)"/><path class="d" d="M804.144,199.655s-1.01,31.286-6.056,35.323,18.167,21.2,18.167,21.2l15.139-24.223v-22.2Z" transform="translate(-433.012 218)"/><path class="f" d="M811.5,242.043l-12.253-18.5-6.922,9.419-10.093,28.259,8.074,110.007,47.435,1.01L843.8,246.08l-15.138-18.166L811.5,242.043Z" transform="translate(-430.276 218)"/><path class="e" d="M862.971,249.108l8.074-1.01s2.018,1.01,3.028,8.075,13.12,69.637,13.12,69.637l-16.148,76.7-18.166-24.222,11.1-42.388-11.1-42.388ZM760.028,248.1h-6.055l-15.139,81.748,14.129,63.583,14.13-23.213-4.037-25.231,2.018-22.2,7.065-13.121L760.028,248.1Zm89.823,328s-6.056-2.018-6.056,2.019,4.037,16.147,4.037,16.147-6.055,37.342,3.028,35.324,16.148-19.176,17.157-24.222,6.056-31.286,6.056-31.286,8.074-19.176,3.027-20.185-19.175-5.047-19.175-5.047,8.074,25.231-8.074,27.25ZM820.583,607.39s-16.148-10.093-19.176-2.019a84.8,84.8,0,0,0-4.037,18.166s-4.037,13.12,12.11,11.1,14.13-2.018,15.14-8.074-4.037-19.175-4.037-19.175ZM807.462,194.609l4.037-1.01s3.028-17.157,10.093-15.138,25.231,4.037,25.231-4.037-17.157-15.139-27.25-14.13-27.25,4.037-26.24,19.176,7.522,29.865,7.522,29.865l.526-8.975Z" transform="translate(-430.275 218)"/><path class="f" d="M827.747,254.154l-17.158-12.111,17.158-14.129,5.956,7.148-5.956,19.092Zm-32.3-1.009,15.138-11.1-12.11-18.166-7.065,9.083,4.037,20.185Z" transform="translate(-429.365 218)"/><path class="e" d="M876.525,248.1l-32.3-13.12-7.57-5.551-22.708,100.42-15.138-45.417,4.541-58.031-41.883,21.7,14.13,68.628,2.018,26.24-6.056,21.2s-21.194,15.138-14.13,31.286,15.14,17.157,15.14,17.157,34.314-32.295,36.332-40.37,5.046-22.2,5.046-22.2,17.158,64.592,37.342,63.583,20.185-22.2,20.185-22.2l-5.046-22.2L858.358,346l4.037-38.351Z" transform="translate(-436.763 218)"/><path class="c" d="M.3.4H703.876V451H.3Z" transform="translate(502 369)"/><path class="g" d="M20.419,56.915H683.757V228.688H20.419Z" transform="translate(502 369)"/><path class="c" d="M185.418,81.727H325.7V89.78H185.418Z" transform="translate(502 369)"/><path class="h" d="M185.418,111.1H402.043v8.053H185.418Z" transform="translate(502 369)"/><path class="c" d="M185.418,138.776H361.962v8.053H185.418Zm0,27.57H288.482V174.4H185.418Zm0,27.57h155.55v8.053H185.418ZM121.481,78.864h17.177V96.041H121.481Z" transform="translate(502 369)"/><path class="h" d="M121.481,106.539h17.177v17.177H121.481Z" transform="translate(502 369)"/><path class="c" d="M121.481,134.213h17.177V151.39H121.481Zm0,27.675h17.177v17.177H121.481Zm0,27.674h17.177v17.177H121.481ZM533.736,117.99h57.258v57.258H533.736Z" transform="translate(502 369)"/><path class="g" d="M20.419,252.546H683.757V424.319H20.419Z" transform="translate(502 369)"/><path class="c" d="M151.064,267.812h17.177v17.177H151.064Z" transform="translate(502 369)"/><path class="h" d="M121.481,267.812h17.177v17.177H121.481Z" transform="translate(502 369)"/><path class="c" d="M412.724,305.375a65.046,65.046,0,0,0-105-9.7l-4.186-3.657a70.594,70.594,0,0,1,113.973,10.526Z" transform="translate(502 369)"/><path class="h" d="M415.344,377.794l-4.614-3.1a65.078,65.078,0,0,0,1.994-69.317l4.784-2.831a70.637,70.637,0,0,1-2.164,75.25Zm-111.23,7.745a70.59,70.59,0,0,1-.58-93.521l4.187,3.657a65.03,65.03,0,0,0,.534,86.155Z" transform="translate(502 369)"/><path class="h" d="M356.714,409.052a70.709,70.709,0,0,1-52.6-23.513l4.14-3.71a65.043,65.043,0,0,0,102.476-7.137l4.614,3.1A70.554,70.554,0,0,1,356.714,409.052Z" transform="translate(502 369)"/><path class="c" d="M533.736,305.032h57.258V362.29H533.736ZM119.1,342.249h57.258v57.258H119.1Z" transform="translate(502 369)"/><path class="h" d="M0,0H703.576V29.89H0Z" transform="translate(502 369)"/><circle class="g" cx="5.54" cy="5.54" r="5.54" transform="translate(518.672 378.742)"/><circle class="g" cx="5.54" cy="5.54" r="5.54" transform="translate(539.701 378.742)"/><circle class="g" cx="5.54" cy="5.54" r="5.54" transform="translate(560.729 378.742)"/></g></svg>