<?xml version="1.0" encoding="utf-8"?><!--Generator: Adobe Illustrator 23.0.4, SVG Export Plug-In . SVG Version: 6.00 Build 0)--><svg version="1.1" id="Layer_1" xmlns="http://www.w3.org/2000/svg" xmlns:xlink="http://www.w3.org/1999/xlink" x="0px" y="0px" viewBox="0 0 1152 648" style="enable-background:new 0 0 1152 648" xml:space="preserve"><style type="text/css">.st0{fill-rule:evenodd;clip-rule:evenodd;fill:#E7E8F6;} .st1{fill-rule:evenodd;clip-rule:evenodd;fill:#3B43BF;}</style><path class="st0" d="M370,0c0,0,13,65.8,209.1,152.3c98.2,46.4,5.3,164.3,102.2,229.3c74.8,40,171.2,23.1,222.3,132
	c57.3,122.1,105.8,61.5,248.4,134.4V0c0,0-518.8,0-711.3,0C396.9,0,370,0,370,0z"/><path class="st1" d="M364,0c0,0,72.4,94.2,259.1,82c109-11.5-7.4,149.8,94.2,184.2c101.6,29.1,172.6-10.6,235.1,106.6
	S947.7,525.1,1152,623V0H364z"/></svg>